<?xml version="1.0" encoding="utf-8"?>
<!-- Generator: Adobe Illustrator 28.3.0, SVG Export Plug-In . SVG Version: 6.00 Build 0)  -->
<svg version="1.1" id="name_x5F_logo" xmlns="http://www.w3.org/2000/svg" xmlns:xlink="http://www.w3.org/1999/xlink" x="0px"
	 y="0px" viewBox="0 0 80 80" style="enable-background:new 0 0 80 80;" xml:space="preserve">
<style type="text/css">
	.st0{fill:#FFFFFF;stroke:#FFFFFF;stroke-width:1.61;stroke-miterlimit:10;}
	.st1{fill:none;stroke:#FFFFFF;stroke-width:1.61;stroke-miterlimit:10;}
	.st2{fill:none;stroke:#FFFFFF;stroke-width:1.6113;stroke-miterlimit:10;}
	.st3{fill:none;stroke:#FFFFFF;stroke-width:1.5;stroke-miterlimit:10;}
	.st4{fill:#FFFFFF;stroke:#FFFFFF;stroke-width:1.03;stroke-miterlimit:10;}
	.st5{fill:#FFFFFF;stroke:#FFFFFF;stroke-width:1.36;stroke-miterlimit:10;}
</style>
<polygon class="st0" points="25.9,40 0.8,40 0.8,0.8 25.9,0.8 13.4,20.4 "/>
<polygon class="st1" points="39,40.1 25.8,40.1 32.4,4.8 32.4,4.8 "/>
<polygon class="st0" points="65.1,18.4 60.3,23.7 65.1,23.7 65.1,40.1 40,40.1 40,22.3 44.8,17 40,17 40,0.8 65.1,0.8 "/>
<path class="st2" d="M66.7,0.8h12.5v33.1c0,3.4-2.8,6.2-6.2,6.2h-0.1c-3.4,0-6.2-2.8-6.2-6.2L66.7,0.8L66.7,0.8z"/>
<rect x="25.9" y="58.1" class="st0" width="14.1" height="21.1"/>
<path class="st1" d="M65.4,79.2H39.9V40h12.9c3.4,0,6.5,1.4,8.7,3.5c2.2,2.2,3.6,5.2,3.6,8.5c0,6.6-5.5,12-12.3,12h-0.3l0.1,0.1
	L65.4,79.2z"/>
<g>
	<rect x="0.8" y="40" class="st1" width="25.1" height="39.2"/>
	<polyline class="st3" points="17.3,40 17.3,53.9 9.4,53.9 9.4,40 	"/>
</g>
<circle class="st4" cx="69.7" cy="67.5" r="9.6"/>
<circle class="st5" cx="32.9" cy="49.1" r="5.6"/>
</svg>
