<?xml version="1.0" encoding="UTF-8"?>
<svg id="_レイヤー_2" data-name="レイヤー 2" xmlns="http://www.w3.org/2000/svg" viewBox="0 0 80 80">
  <defs>
    <style>
      .cls-1 {
        fill: none;
        stroke: #2b2c2c;
        stroke-miterlimit: 10;
        stroke-width: 1.01px;
      }

      .cls-2 {
        fill: #2b2c2c;
      }
    </style>
  </defs>
  <g id="_レイヤー_1-2" data-name="レイヤー 1">
    <g>
      <polygon class="cls-2" points="26.02 40 0 40 0 0 26.02 0 13.01 20 26.02 40"/>
      <path class="cls-2" d="M32.98,5.8l5.81,33.2h-11.63l5.81-33.2M32.98,0l-7,40h14.01L32.98,0h0Z"/>
      <polygon class="cls-2" points="65.87 17.95 60.88 23.36 65.87 23.36 65.87 40.03 40.03 40.03 40.03 21.94 45.02 16.53 40.03 16.53 40.03 .03 65.87 .03 65.87 17.95"/>
      <path class="cls-2" d="M78.88,1.01v32.05c0,3.29-2.68,5.97-5.97,5.97h-.43c-3.09,0-5.6-2.51-5.6-5.6V1.01h12M79.88,0h-14.01v33.43c0,3.65,2.96,6.6,6.6,6.6h.43c3.85,0,6.98-3.12,6.98-6.98V0h0Z"/>
      <path class="cls-2" d="M25.01,41.01v37.99H1.01v-37.99h24M26.02,40H0v40h26.02v-40h0Z"/>
      <rect class="cls-2" x="26.02" y="58" width="14.01" height="22"/>
      <path class="cls-2" d="M53.2,41.01c3.08,0,5.98,1.17,8.15,3.3,2.17,2.12,3.36,4.94,3.36,7.93,0,6.2-5.17,11.23-11.52,11.23h-2.58l1.49,1.67.09.11,11.66,13.74h-22.83v-28.61h0v-9.37h12.16M53.2,40h-13.17v9.37h0v30.62h26.02l-13.07-15.39-.11-.12h.34c6.92,0,12.52-5.48,12.52-12.24,0-3.38-1.41-6.44-3.67-8.65-2.26-2.22-5.4-3.59-8.86-3.59h0Z"/>
      <polyline class="cls-1" points="17.01 40 17.01 53.5 9.01 53.5 9.01 40"/>
      <ellipse class="cls-2" cx="33.02" cy="49.02" rx="7" ry="7"/>
      <g>
        <path class="cls-2" d="M69.53,78.17c-5.56,0-10.09-4.52-10.09-10.08s4.53-10.08,10.09-10.08,10.09,4.52,10.09,10.08-4.53,10.08-10.09,10.08Z"/>
        <path class="cls-2" d="M69.53,58.39c5.36,0,9.71,4.34,9.71,9.7s-4.35,9.7-9.71,9.7-9.71-4.34-9.71-9.7,4.35-9.7,9.71-9.7M69.53,57.63c-5.77,0-10.47,4.69-10.47,10.46s4.7,10.46,10.47,10.46,10.47-4.69,10.47-10.46-4.7-10.46-10.47-10.46h0Z"/>
      </g>
    </g>
  </g>
</svg>